<svg width="12" height="15" fill="none" xmlns="http://www.w3.org/2000/svg"><path d="M10.5 5h-.75V3.571C9.75 1.6 8.07 0 6 0 3.93 0 2.25 1.6 2.25 3.571V5H1.5C.675 5 0 5.643 0 6.429v7.142C0 14.357.675 15 1.5 15h9c.825 0 1.5-.643 1.5-1.429V6.43C12 5.643 11.325 5 10.5 5zM3.75 3.571C3.75 2.386 4.755 1.43 6 1.43s2.25.957 2.25 2.142V5h-4.5V3.571zm6 10h-7.5c-.413 0-.75-.321-.75-.714V7.143c0-.393.337-.714.75-.714h7.5c.412 0 .75.321.75.714v5.714c0 .393-.338.714-.75.714zM6 11.43c.825 0 1.5-.643 1.5-1.429s-.675-1.43-1.5-1.43S4.5 9.214 4.5 10s.675 1.429 1.5 1.429z" fill="#3F3F3F"/></svg>